<?xml version="1.0" encoding="UTF-8"?>
<svg xmlns="http://www.w3.org/2000/svg" xmlns:xlink="http://www.w3.org/1999/xlink" width="45pt" height="64pt" viewBox="0 0 45 64" version="1.1">
<g id="surface1">
<path style="fill-rule:nonzero;fill:rgb(100%,100%,100%);fill-opacity:1;stroke-width:0.5;stroke-linecap:butt;stroke-linejoin:miter;stroke:rgb(0%,0%,0%);stroke-opacity:1;stroke-miterlimit:4;" d="M 166.83735 235.546177 C 166.83735 239.322704 163.745888 242.420637 159.957759 242.420637 L 7.111814 242.420637 C 3.338198 242.420637 0.246736 239.322704 0.246736 235.546177 L 0.246736 7.125246 C 0.246736 3.348718 3.338198 0.250785 7.111814 0.250785 L 159.957759 0.250785 C 163.745888 0.250785 166.83735 3.348718 166.83735 7.125246 Z M 166.83735 235.546177 " transform="matrix(0.269138,0,0,0.264793,0,0)"/>
<path style=" stroke:none;fill-rule:nonzero;fill:rgb(0%,0%,0%);fill-opacity:1;" d="M 1.667969 7.417969 L 3.996094 1.429688 L 4.84375 1.429688 L 7.320312 7.417969 L 6.414062 7.417969 L 5.710938 5.597656 L 3.175781 5.597656 L 2.515625 7.417969 Z M 3.410156 4.960938 L 5.460938 4.960938 L 4.832031 3.289062 C 4.632812 2.785156 4.492188 2.371094 4.40625 2.054688 C 4.324219 2.441406 4.214844 2.824219 4.070312 3.203125 Z M 3.410156 4.960938 "/>
<path style=" stroke:none;fill-rule:nonzero;fill:rgb(0%,0%,0%);fill-opacity:1;" d="M 7.800781 13.066406 C 7.703125 11.585938 4.65625 8.796875 4.554688 8.097656 C 4.457031 8.796875 1.410156 11.585938 1.3125 13.066406 C 1.246094 14.113281 2 14.550781 2.6875 14.550781 C 3.433594 14.542969 4.050781 13.523438 4.261719 13.328125 C 4.363281 13.589844 3.609375 15.769531 3.375 15.769531 L 5.734375 15.769531 C 5.5 15.769531 4.753906 13.589844 4.851562 13.328125 C 5.035156 13.511719 5.582031 14.515625 6.421875 14.550781 C 7.113281 14.550781 7.871094 14.113281 7.800781 13.066406 Z M 7.800781 13.066406 "/>
<path style=" stroke:none;fill-rule:nonzero;fill:rgb(0%,0%,0%);fill-opacity:1;" d="M 43.324219 56.953125 L 40.992188 62.941406 L 40.144531 62.941406 L 37.667969 56.953125 L 38.578125 56.953125 L 39.28125 58.773438 L 41.8125 58.773438 L 42.472656 56.953125 Z M 41.578125 59.410156 L 39.527344 59.410156 L 40.160156 61.082031 C 40.355469 61.585938 40.496094 62 40.582031 62.316406 C 40.664062 61.929688 40.773438 61.546875 40.921875 61.171875 Z M 41.578125 59.410156 "/>
<path style=" stroke:none;fill-rule:nonzero;fill:rgb(0%,0%,0%);fill-opacity:1;" d="M 37.1875 51.308594 C 37.289062 52.789062 40.335938 55.578125 40.429688 56.277344 C 40.527344 55.578125 43.574219 52.789062 43.675781 51.308594 C 43.742188 50.261719 42.984375 49.824219 42.296875 49.824219 C 41.554688 49.832031 40.9375 50.851562 40.726562 51.046875 C 40.628906 50.785156 41.378906 48.605469 41.613281 48.605469 L 39.25 48.605469 C 39.484375 48.605469 40.234375 50.785156 40.136719 51.046875 C 39.949219 50.863281 39.40625 49.855469 38.5625 49.824219 C 37.878906 49.824219 37.121094 50.261719 37.1875 51.308594 Z M 37.1875 51.308594 "/>
<path style=" stroke:none;fill-rule:nonzero;fill:rgb(0%,0%,0%);fill-opacity:1;" d="M 21.398438 48.59375 C 19.292969 48.59375 17.546875 48.574219 17.527344 48.554688 C 17.503906 48.535156 17.675781 48.375 17.90625 48.199219 C 18.75 47.5625 19.480469 46.496094 20.3125 44.671875 C 20.890625 43.417969 21.074219 42.917969 21.265625 42.089844 C 21.574219 40.761719 21.5625 39.855469 21.238281 39.472656 L 21.082031 39.289062 L 20.457031 39.9375 C 19.757812 40.65625 18.851562 41.273438 17.839844 41.707031 C 16.726562 42.183594 16.015625 42.335938 14.792969 42.355469 C 13.835938 42.371094 13.625 42.34375 12.941406 42.132812 C 11.210938 41.601562 9.804688 40.390625 8.988281 38.710938 C 8.492188 37.699219 8.367188 37.140625 8.347656 35.855469 C 8.324219 34.816406 8.351562 34.609375 8.585938 33.707031 C 8.964844 32.289062 9.734375 30.539062 10.515625 29.3125 C 11.46875 27.828125 13.664062 25.070312 15.984375 22.445312 C 17.894531 20.285156 18.664062 19.324219 19.996094 17.425781 C 21.410156 15.414062 21.972656 14.449219 22.238281 13.566406 C 22.351562 13.214844 22.457031 12.929688 22.476562 12.929688 C 22.503906 12.929688 22.644531 13.277344 22.789062 13.707031 C 23.367188 15.402344 24.871094 17.730469 27.042969 20.296875 C 27.433594 20.753906 28.5625 22.058594 29.554688 23.199219 C 32.800781 26.914062 34.171875 28.789062 35.382812 31.160156 C 36.320312 32.996094 36.691406 34.410156 36.648438 35.992188 C 36.589844 38.011719 35.933594 39.441406 34.40625 40.855469 C 33.78125 41.433594 32.816406 41.984375 32.046875 42.199219 C 31.8125 42.265625 31.171875 42.351562 30.621094 42.390625 C 28.984375 42.503906 27.765625 42.1875 26.066406 41.210938 C 25.269531 40.753906 24.367188 40.011719 24.117188 39.609375 C 23.917969 39.289062 23.761719 39.308594 23.613281 39.679688 C 23.355469 40.304688 23.316406 40.863281 23.46875 41.617188 C 23.953125 43.957031 25.496094 46.953125 26.820312 48.121094 L 27.355469 48.59375 L 26.289062 48.597656 C 25.703125 48.597656 23.503906 48.597656 21.398438 48.59375 Z M 24.890625 47.359375 C 24.476562 47.03125 23.578125 45.769531 23.132812 44.890625 C 22.667969 43.980469 22.53125 43.308594 22.660156 42.644531 C 22.710938 42.371094 22.777344 42.054688 22.800781 41.929688 C 22.828125 41.789062 22.765625 41.566406 22.632812 41.308594 L 22.417969 40.910156 L 22.179688 41.359375 L 21.941406 41.804688 L 22.097656 42.21875 C 22.332031 42.828125 22.277344 43.710938 21.960938 44.375 C 21.566406 45.21875 20.242188 47.15625 19.898438 47.390625 C 19.5 47.667969 19.675781 47.65625 20.4375 47.363281 C 20.988281 47.152344 21.164062 47.125 22.132812 47.113281 C 23.246094 47.109375 24.261719 47.25 24.703125 47.472656 C 25.117188 47.6875 25.226562 47.621094 24.890625 47.359375 Z M 23.292969 46.808594 C 22.78125 46.699219 21.484375 46.734375 21.007812 46.867188 C 20.792969 46.925781 20.792969 46.925781 21.054688 46.636719 C 21.410156 46.238281 21.636719 45.816406 22.058594 44.757812 C 22.382812 43.941406 22.425781 43.878906 22.5 44.070312 C 22.546875 44.1875 22.734375 44.675781 22.914062 45.15625 C 23.226562 46 23.421875 46.347656 23.800781 46.753906 C 23.996094 46.964844 24.007812 46.964844 23.292969 46.808594 Z M 31.855469 41.054688 C 33.0625 40.601562 34.179688 39.546875 34.765625 38.304688 C 35.132812 37.523438 35.265625 37.050781 35.378906 36.101562 C 35.539062 34.769531 35.304688 33.574219 34.570312 31.882812 C 33.601562 29.644531 32.234375 27.800781 29.382812 24.882812 C 25.042969 20.445312 23.964844 19.066406 22.941406 16.621094 C 22.769531 16.203125 22.597656 15.699219 22.5625 15.496094 C 22.527344 15.296875 22.46875 15.136719 22.441406 15.140625 C 22.410156 15.140625 22.285156 15.464844 22.164062 15.859375 C 21.429688 18.214844 19.785156 20.488281 15.953125 24.421875 C 13.28125 27.167969 12.863281 27.65625 11.769531 29.320312 C 10.339844 31.5 9.683594 33.253906 9.605469 35.074219 C 9.492188 37.941406 11.019531 40.398438 13.347656 41.074219 C 14.773438 41.488281 16.726562 41.15625 18.265625 40.234375 C 19.503906 39.492188 20.132812 38.878906 20.609375 37.953125 C 20.761719 37.65625 20.898438 37.398438 20.917969 37.375 C 20.9375 37.359375 21.089844 37.472656 21.261719 37.628906 C 21.566406 37.902344 22.09375 38.789062 22.3125 39.382812 L 22.417969 39.667969 L 22.703125 39 C 22.890625 38.558594 23.140625 38.164062 23.449219 37.828125 L 23.910156 37.320312 L 24.222656 37.925781 C 24.925781 39.304688 26.894531 40.671875 28.898438 41.171875 C 29.753906 41.382812 31.121094 41.328125 31.855469 41.054688 Z M 29.5625 40.988281 C 28.835938 40.90625 28.378906 40.765625 27.617188 40.402344 C 25.617188 39.453125 24.5625 38.390625 24.355469 37.128906 C 24.320312 36.90625 24.25 36.726562 24.199219 36.726562 C 23.90625 36.734375 22.964844 37.804688 22.640625 38.507812 C 22.566406 38.667969 22.46875 38.792969 22.429688 38.796875 C 22.390625 38.796875 22.269531 38.632812 22.164062 38.4375 C 21.859375 37.867188 21.292969 37.132812 20.976562 36.902344 C 20.660156 36.671875 20.660156 36.671875 20.511719 37.164062 C 20.351562 37.691406 20.019531 38.324219 19.699219 38.726562 C 19.371094 39.140625 17.984375 40.109375 17.269531 40.429688 C 15.671875 41.148438 13.785156 41.15625 12.519531 40.445312 C 11.433594 39.84375 10.621094 38.722656 10.21875 37.273438 C 9.644531 35.226562 9.964844 33.296875 11.253906 30.984375 C 12.441406 28.859375 13.175781 27.898438 15.363281 25.621094 C 18.984375 21.847656 20.808594 19.515625 21.867188 17.324219 C 22.300781 16.414062 22.402344 16.457031 22.152344 17.464844 C 21.730469 19.175781 18.886719 23.328125 14.542969 28.570312 C 13.371094 29.984375 12.109375 32.0625 11.722656 33.214844 C 11.191406 34.800781 11.113281 36.074219 11.472656 37.378906 C 11.980469 39.234375 13.03125 40.300781 14.566406 40.535156 C 16.792969 40.863281 18.785156 39.277344 20.105469 36.121094 L 20.421875 35.355469 L 20.863281 36 C 21.335938 36.695312 22.296875 37.691406 22.496094 37.6875 C 22.648438 37.683594 23.777344 36.492188 24.148438 35.945312 C 24.296875 35.71875 24.445312 35.535156 24.46875 35.535156 C 24.496094 35.535156 24.574219 35.675781 24.640625 35.851562 C 24.703125 36.023438 24.914062 36.464844 25.105469 36.832031 C 26.449219 39.425781 28.230469 40.699219 30.289062 40.535156 C 31.207031 40.460938 31.871094 40.078125 32.511719 39.246094 C 33.203125 38.351562 33.535156 37.511719 33.644531 36.347656 C 33.769531 35.054688 33.4375 33.628906 32.625 31.957031 C 32.167969 31.015625 30.820312 29.105469 29.75 27.882812 C 27.65625 25.484375 24.191406 20.710938 23.238281 18.914062 C 22.996094 18.449219 22.675781 17.421875 22.597656 16.847656 C 22.53125 16.382812 22.632812 16.480469 22.882812 17.132812 C 23.296875 18.199219 24.316406 19.789062 25.449219 21.132812 C 26.15625 21.972656 26.9375 22.824219 28.898438 24.875 C 30.160156 26.203125 30.964844 27.109375 31.871094 28.253906 C 33.421875 30.214844 34.695312 32.804688 35.003906 34.628906 C 35.300781 36.40625 34.578125 38.632812 33.316406 39.8125 C 32.828125 40.269531 31.851562 40.765625 31.132812 40.929688 C 30.515625 41.066406 30.300781 41.074219 29.5625 40.988281 Z M 28.796875 40.035156 C 28.066406 39.769531 27.453125 39.382812 26.96875 38.871094 C 26.101562 37.953125 25.199219 36.421875 24.789062 35.152344 C 24.574219 34.492188 24.496094 34.394531 24.410156 34.671875 C 24.234375 35.246094 22.703125 37.429688 22.472656 37.433594 C 22.308594 37.433594 21.601562 36.53125 20.925781 35.457031 C 20.574219 34.90625 20.277344 34.441406 20.261719 34.425781 C 20.246094 34.410156 20.160156 34.714844 20.0625 35.089844 C 19.621094 36.816406 18.300781 38.890625 17.148438 39.664062 C 15.527344 40.761719 13.121094 40.28125 12.386719 38.710938 C 12.191406 38.292969 12.023438 37.417969 12.140625 37.417969 C 12.179688 37.414062 12.214844 37.453125 12.214844 37.5 C 12.214844 37.6875 12.707031 38.285156 13.042969 38.503906 C 14.363281 39.363281 15.632812 39.222656 17.097656 38.054688 C 18.242188 37.144531 19.304688 35.085938 18.898438 34.566406 C 18.789062 34.429688 18.78125 34.453125 18.816406 34.75 C 18.863281 35.191406 18.667969 35.488281 18.144531 35.753906 C 17.917969 35.871094 17.699219 36.035156 17.652344 36.121094 C 17.574219 36.261719 17.546875 36.253906 17.316406 36.042969 C 17.179688 35.914062 16.972656 35.8125 16.859375 35.8125 C 16.664062 35.816406 16.664062 35.820312 16.824219 35.992188 C 17.019531 36.195312 17.050781 36.875 16.890625 37.371094 C 16.761719 37.765625 16.097656 38.46875 15.644531 38.691406 C 14.882812 39.0625 13.667969 38.816406 13.050781 38.164062 C 12.164062 37.226562 12.511719 35.660156 13.75 35.003906 C 14.34375 34.6875 15.1875 34.808594 15.632812 35.269531 C 15.84375 35.484375 15.84375 35.496094 15.707031 35.792969 C 15.511719 36.207031 15.378906 36.230469 15.050781 35.917969 C 14.792969 35.675781 14.734375 35.65625 14.339844 35.703125 C 13.589844 35.78125 13.128906 36.453125 13.332031 37.15625 C 13.453125 37.558594 14.082031 38.109375 14.5 38.179688 C 15.597656 38.363281 16.621094 37.175781 16.34375 36.035156 C 16.257812 35.683594 16.269531 35.558594 16.46875 34.980469 C 16.898438 33.714844 16.660156 31.75 15.96875 30.933594 C 15.835938 30.773438 15.832031 30.773438 15.914062 31 C 16.007812 31.238281 15.96875 31.484375 15.832031 31.488281 C 15.789062 31.488281 15.753906 31.449219 15.753906 31.402344 C 15.753906 31.351562 15.589844 31.242188 15.390625 31.160156 C 14.941406 30.96875 14.59375 31.066406 14.402344 31.445312 C 14.277344 31.691406 14.277344 31.703125 14.429688 31.640625 C 14.789062 31.488281 14.914062 31.484375 15.238281 31.625 C 15.867188 31.894531 16.25 32.648438 16.257812 33.652344 C 16.265625 34.261719 16.132812 34.972656 16.007812 34.972656 C 15.980469 34.972656 15.8125 34.867188 15.632812 34.726562 C 15.199219 34.402344 14.925781 34.308594 14.382812 34.320312 C 13.488281 34.339844 12.613281 34.992188 12.132812 36.011719 C 11.980469 36.335938 11.855469 36.703125 11.855469 36.820312 C 11.855469 37.027344 11.851562 37.027344 11.75 36.867188 C 11.605469 36.636719 11.617188 35.304688 11.765625 34.570312 C 12.148438 32.722656 13.648438 30.039062 15.363281 28.140625 L 15.828125 27.628906 L 15.890625 28.429688 C 15.9375 29.058594 16 29.324219 16.179688 29.660156 C 16.460938 30.179688 17.070312 30.730469 17.511719 30.867188 C 17.996094 31.015625 18.761719 30.925781 19.085938 30.683594 C 19.421875 30.429688 19.664062 29.90625 19.582031 29.601562 C 19.539062 29.441406 19.550781 29.386719 19.628906 29.40625 C 19.8125 29.464844 20.066406 29.851562 20.148438 30.207031 C 20.242188 30.570312 20.15625 31.378906 20 31.675781 C 19.84375 31.972656 19.339844 32.296875 18.824219 32.433594 C 18.03125 32.640625 17.871094 32.734375 17.726562 33.042969 C 17.554688 33.410156 17.640625 33.894531 17.890625 34.023438 C 18.058594 34.109375 18.0625 34.105469 17.921875 33.917969 C 17.738281 33.667969 17.738281 33.621094 17.949219 33.414062 C 18.09375 33.265625 18.234375 33.242188 18.957031 33.226562 C 20.023438 33.207031 20.421875 33.046875 20.726562 32.511719 C 21.0625 31.917969 21.140625 31.492188 21.019531 30.886719 C 20.828125 29.925781 20.3125 29.136719 19.6875 28.832031 C 19.167969 28.582031 18.75 28.578125 18.449219 28.820312 C 18.179688 29.035156 18.148438 29.203125 18.410156 29.0625 C 18.671875 28.917969 18.984375 29.082031 19.144531 29.441406 C 19.257812 29.695312 19.257812 29.773438 19.160156 30.023438 C 18.832031 30.835938 17.863281 30.910156 17.007812 30.191406 C 16.460938 29.734375 16.21875 29.234375 16.210938 28.554688 C 16.203125 27.601562 16.6875 26.816406 17.539062 26.40625 C 17.875 26.242188 18.625 26.222656 19.054688 26.367188 C 20.25 26.765625 21.347656 28.257812 21.75 30.035156 C 21.894531 30.691406 22.273438 33.53125 22.28125 34.050781 C 22.285156 34.265625 22.214844 34.53125 22.117188 34.695312 C 21.902344 35.054688 21.90625 35.285156 22.128906 35.414062 C 22.226562 35.472656 22.304688 35.605469 22.304688 35.710938 C 22.304688 35.824219 22.359375 35.90625 22.4375 35.902344 C 22.515625 35.902344 22.566406 35.820312 22.566406 35.707031 C 22.5625 35.601562 22.640625 35.46875 22.734375 35.40625 C 22.941406 35.277344 22.945312 35.039062 22.753906 34.683594 C 22.636719 34.464844 22.617188 34.265625 22.648438 33.605469 C 22.707031 32.542969 22.957031 30.820312 23.171875 30.03125 C 23.621094 28.363281 24.578125 26.953125 25.574219 26.488281 C 26.378906 26.113281 27.457031 26.363281 28.09375 27.074219 C 28.503906 27.527344 28.613281 27.871094 28.585938 28.613281 C 28.566406 29.132812 28.515625 29.300781 28.269531 29.722656 C 27.871094 30.394531 27.304688 30.75 26.6875 30.703125 C 26.335938 30.683594 26.214844 30.628906 25.972656 30.375 C 25.742188 30.132812 25.679688 29.996094 25.675781 29.722656 C 25.667969 29.269531 25.984375 28.921875 26.359375 28.972656 C 26.675781 29.011719 26.6875 28.914062 26.394531 28.726562 C 26.046875 28.511719 25.417969 28.621094 24.914062 28.984375 C 24.464844 29.308594 24.003906 30.003906 23.859375 30.5625 C 23.730469 31.058594 23.832031 31.960938 24.066406 32.421875 C 24.390625 33.054688 24.660156 33.183594 25.75 33.214844 C 26.566406 33.242188 26.699219 33.265625 26.871094 33.433594 C 27.046875 33.601562 27.058594 33.644531 26.960938 33.804688 C 26.867188 33.953125 26.867188 33.976562 26.964844 33.945312 C 27.132812 33.886719 27.238281 33.511719 27.160156 33.238281 C 27.050781 32.835938 26.683594 32.5625 26.09375 32.457031 C 25.800781 32.40625 25.457031 32.285156 25.328125 32.191406 C 24.652344 31.683594 24.464844 30.289062 24.988281 29.621094 C 25.226562 29.316406 25.324219 29.335938 25.273438 29.675781 C 25.21875 30.042969 25.417969 30.417969 25.828125 30.714844 C 26.078125 30.898438 26.261719 30.953125 26.679688 30.96875 C 27.34375 31.003906 27.738281 30.839844 28.25 30.320312 C 28.796875 29.761719 28.984375 29.285156 28.976562 28.421875 C 28.976562 28.039062 29.003906 27.722656 29.035156 27.722656 C 29.144531 27.71875 30.332031 29.230469 31.089844 30.332031 C 32.703125 32.664062 33.386719 34.527344 33.265625 36.238281 C 33.210938 37.007812 33.089844 37.203125 33.003906 36.660156 C 32.882812 35.953125 32.109375 34.921875 31.40625 34.527344 C 31.101562 34.355469 30.902344 34.3125 30.4375 34.316406 C 29.808594 34.316406 29.4375 34.453125 29.027344 34.84375 L 28.796875 35.0625 L 28.679688 34.863281 C 28.605469 34.734375 28.558594 34.386719 28.554688 33.898438 C 28.542969 33.003906 28.726562 32.476562 29.230469 31.953125 C 29.628906 31.539062 29.964844 31.460938 30.300781 31.695312 L 30.554688 31.875 L 30.550781 31.628906 C 30.539062 31.082031 29.773438 30.882812 29.238281 31.28125 L 28.96875 31.488281 L 29 31.230469 C 29.042969 30.898438 28.898438 30.949219 28.609375 31.371094 C 28.273438 31.859375 28.132812 32.386719 28.09375 33.265625 C 28.070312 33.933594 28.09375 34.1875 28.261719 34.710938 C 28.367188 35.0625 28.457031 35.449219 28.457031 35.582031 C 28.457031 35.707031 28.453125 36.035156 28.445312 36.304688 C 28.433594 37.113281 28.796875 37.726562 29.476562 38.019531 C 30.476562 38.460938 31.503906 37.839844 31.492188 36.8125 C 31.484375 36.328125 31.289062 36.023438 30.851562 35.808594 C 30.523438 35.652344 29.976562 35.710938 29.734375 35.929688 C 29.574219 36.078125 29.5625 36.074219 29.296875 35.824219 C 29.027344 35.566406 29.027344 35.558594 29.167969 35.335938 C 29.476562 34.863281 30.554688 34.605469 31.097656 34.871094 C 31.226562 34.9375 31.480469 35.136719 31.660156 35.3125 C 32.523438 36.171875 32.589844 37.324219 31.824219 38.207031 C 31.207031 38.917969 30.570312 39.078125 29.597656 38.769531 C 28.894531 38.546875 28.457031 38.203125 28.183594 37.664062 C 27.796875 36.902344 27.796875 36.628906 28.171875 35.882812 C 28.265625 35.699219 27.796875 35.859375 27.570312 36.085938 C 27.367188 36.289062 27.289062 36.328125 27.230469 36.242188 C 27.191406 36.179688 27.15625 36.105469 27.15625 36.070312 C 27.15625 36.035156 26.960938 35.890625 26.726562 35.746094 C 26.125 35.371094 25.878906 34.832031 26.097656 34.375 C 26.179688 34.191406 26.179688 34.191406 26.050781 34.351562 C 25.761719 34.722656 25.867188 35.320312 26.402344 36.308594 C 27.316406 37.996094 28.742188 39.027344 30.238281 39.089844 C 30.847656 39.117188 30.96875 39.089844 31.386719 38.882812 C 31.875 38.640625 32.355469 38.152344 32.632812 37.625 L 32.789062 37.324219 L 32.796875 37.625 C 32.8125 38.261719 32.097656 39.433594 31.421875 39.875 C 31.027344 40.132812 30.925781 40.15625 30.164062 40.191406 C 29.464844 40.222656 29.253906 40.195312 28.796875 40.035156 Z M 29.71875 37.78125 C 29.46875 37.734375 29.085938 37.363281 28.929688 37.023438 C 28.808594 36.75 28.75 36.066406 28.851562 36.066406 C 29.035156 36.0625 29.402344 36.382812 29.550781 36.679688 C 29.699219 36.988281 29.753906 37.027344 30.015625 37.023438 C 30.367188 37.019531 30.550781 36.800781 30.394531 36.574219 C 30.339844 36.488281 30.210938 36.429688 30.113281 36.433594 C 29.910156 36.445312 29.867188 36.308594 30.03125 36.148438 C 30.140625 36.035156 30.511719 36.007812 30.738281 36.089844 C 30.929688 36.15625 31.144531 36.558594 31.144531 36.863281 C 31.148438 37.160156 30.894531 37.519531 30.550781 37.699219 C 30.3125 37.828125 30.097656 37.84375 29.71875 37.78125 Z M 14.082031 37.542969 C 13.675781 37.1875 13.589844 36.789062 13.832031 36.390625 C 14.027344 36.074219 14.355469 35.957031 14.664062 36.089844 C 14.917969 36.199219 14.957031 36.441406 14.707031 36.378906 C 14.582031 36.351562 14.507812 36.402344 14.4375 36.5625 C 14.351562 36.75 14.363281 36.8125 14.5 36.953125 C 14.582031 37.046875 14.742188 37.121094 14.851562 37.117188 C 15.074219 37.117188 15.402344 36.746094 15.398438 36.503906 C 15.394531 36.417969 15.449219 36.34375 15.515625 36.34375 C 15.582031 36.34375 15.679688 36.28125 15.738281 36.214844 C 15.914062 36 15.996094 36.066406 16.003906 36.425781 C 16.015625 37.203125 15.585938 37.710938 14.863281 37.785156 C 14.433594 37.824219 14.378906 37.808594 14.082031 37.542969 Z M 22.320312 31.285156 C 22.316406 31.089844 22.257812 30.832031 22.1875 30.714844 C 22.007812 30.417969 22.019531 30.28125 22.25 29.960938 L 22.457031 29.679688 L 22.65625 29.992188 C 22.835938 30.273438 22.847656 30.332031 22.75 30.570312 C 22.6875 30.714844 22.625 31.015625 22.605469 31.238281 C 22.5625 31.777344 22.335938 31.8125 22.320312 31.285156 Z M 21.867188 29.191406 C 21.679688 28.320312 21.117188 27.371094 20.347656 26.636719 C 19.539062 25.859375 18.875 25.523438 18.339844 25.613281 C 18.054688 25.664062 18.003906 25.652344 18.003906 25.523438 C 18.003906 25.285156 18.195312 24.992188 18.472656 24.808594 C 18.964844 24.476562 19.332031 24.609375 20.125 25.394531 C 21.277344 26.550781 22.105469 28.125 22.117188 29.191406 C 22.128906 29.777344 21.996094 29.773438 21.867188 29.191406 Z M 22.726562 29.242188 C 22.710938 28.207031 23.445312 26.660156 24.464844 25.5625 C 25.476562 24.480469 26.152344 24.308594 26.71875 25 C 26.820312 25.125 26.90625 25.304688 26.90625 25.40625 C 26.910156 25.570312 26.867188 25.589844 26.410156 25.59375 C 25.71875 25.597656 25.199219 25.878906 24.40625 26.675781 C 23.644531 27.445312 23.121094 28.347656 22.976562 29.140625 C 22.921875 29.441406 22.84375 29.683594 22.804688 29.683594 C 22.765625 29.683594 22.730469 29.484375 22.726562 29.242188 Z M 22.359375 27.871094 C 22.351562 27.125 22.183594 26.273438 21.648438 24.171875 C 21.128906 22.144531 21.195312 21.046875 21.925781 19.699219 C 22.085938 19.398438 22.261719 18.984375 22.316406 18.78125 L 22.414062 18.414062 L 22.53125 18.753906 C 22.589844 18.9375 22.78125 19.382812 22.957031 19.734375 C 23.636719 21.117188 23.726562 22.0625 23.332031 23.636719 C 22.988281 25.007812 22.707031 26.378906 22.574219 27.351562 C 22.449219 28.277344 22.367188 28.464844 22.359375 27.871094 Z M 21.339844 26.203125 C 21.207031 26.011719 20.867188 25.585938 20.589844 25.257812 C 19.96875 24.527344 19.714844 24.0625 19.640625 23.515625 C 19.539062 22.789062 19.851562 22.339844 20.371094 22.445312 C 20.878906 22.542969 21.117188 23.152344 21.363281 25.007812 C 21.46875 25.765625 21.578125 26.429688 21.605469 26.472656 C 21.636719 26.515625 21.644531 26.550781 21.621094 26.550781 C 21.601562 26.554688 21.476562 26.394531 21.339844 26.203125 Z M 23.332031 26.316406 C 23.351562 26.171875 23.402344 25.675781 23.449219 25.207031 C 23.59375 23.695312 23.875 22.859375 24.34375 22.523438 C 24.660156 22.292969 24.800781 22.289062 25.011719 22.515625 C 25.140625 22.648438 25.179688 22.816406 25.183594 23.253906 C 25.191406 23.976562 25.0625 24.238281 24.226562 25.253906 C 23.867188 25.695312 23.507812 26.171875 23.433594 26.316406 L 23.292969 26.570312 Z M 19.320312 24.28125 C 19.074219 24.128906 18.90625 24.128906 18.539062 24.273438 C 18.40625 24.324219 18.410156 24.289062 18.574219 23.996094 C 18.675781 23.8125 18.894531 23.507812 19.054688 23.320312 L 19.34375 22.984375 L 19.351562 23.371094 C 19.355469 23.582031 19.417969 23.914062 19.488281 24.105469 C 19.558594 24.296875 19.609375 24.453125 19.601562 24.449219 C 19.59375 24.449219 19.464844 24.371094 19.320312 24.28125 Z M 25.371094 24.066406 C 25.402344 23.878906 25.453125 23.542969 25.480469 23.308594 L 25.527344 22.890625 L 25.757812 23.222656 C 25.882812 23.40625 26.054688 23.675781 26.136719 23.828125 L 26.285156 24.101562 L 26 24.105469 C 25.84375 24.109375 25.625 24.175781 25.515625 24.253906 L 25.308594 24.398438 Z M 20.722656 21.96875 C 20.609375 21.878906 20.445312 21.804688 20.355469 21.804688 C 20.265625 21.804688 20.191406 21.792969 20.191406 21.773438 C 20.1875 21.707031 20.863281 20.703125 20.941406 20.65625 C 20.980469 20.632812 20.992188 20.757812 20.957031 20.945312 C 20.925781 21.128906 20.921875 21.472656 20.949219 21.707031 C 20.976562 21.945312 20.984375 22.136719 20.964844 22.136719 C 20.945312 22.132812 20.839844 22.058594 20.722656 21.96875 Z M 23.9375 21.40625 C 23.9375 21.035156 23.945312 20.734375 23.957031 20.734375 C 23.992188 20.730469 24.691406 21.734375 24.691406 21.785156 C 24.691406 21.8125 24.648438 21.8125 24.601562 21.785156 C 24.550781 21.753906 24.378906 21.808594 24.222656 21.902344 L 23.933594 22.078125 Z M 23.9375 21.40625 "/>
</g>
</svg>
